<svg xmlns="http://www.w3.org/2000/svg" width="200" height="108" viewBox="0 0 200 108">
  <rect width="200" height="108" rx="6" fill="#161b22"/>
  <text x="100" y="14" text-anchor="middle" font-size="11" font-weight="500" font-family="sans-serif" fill="#ffffff">Heart rate</text>
  <path d="M 10.0,58.9 L 23.8,60.8 L 37.7,57.1 L 51.5,38.7 L 65.4,60.8 L 79.2,31.4 L 93.1,29.5 L 106.9,38.7 L 120.8,68.1 L 134.6,58.9 L 148.5,62.6 L 162.3,68.1 L 176.2,51.6 L 190.0,53.4 L 190.0,81.0 L 176.2,86.5 L 162.3,79.1 L 148.5,81.0 L 134.6,81.0 L 120.8,79.1 L 106.9,75.5 L 93.1,73.6 L 79.2,75.5 L 65.4,71.8 L 51.5,75.5 L 37.7,77.3 L 23.8,73.6 L 10.0,73.6 Z" fill="#f85149" fill-opacity="0.08"/>
  <path d="M 10.0,68.1 L 23.8,69.9 L 37.7,66.3 L 51.5,57.1 L 65.4,66.3 L 79.2,55.2 L 93.1,64.4 L 106.9,57.1 L 120.8,71.8 L 134.6,71.8 L 148.5,75.5 L 162.3,75.5 L 176.2,75.5 L 190.0,68.1 L 190.0,92.0 L 10,92.0 Z" fill="#f85149" fill-opacity="0.12"/>
  <path d="M 10.0,68.1 L 23.8,69.9 L 37.7,66.3 L 51.5,57.1 L 65.4,66.3 L 79.2,55.2 L 93.1,64.4 L 106.9,57.1 L 120.8,71.8 L 134.6,71.8 L 148.5,75.5 L 162.3,75.5 L 176.2,75.5 L 190.0,68.1" fill="none" stroke="#f85149" stroke-width="1.5" stroke-linecap="round" stroke-linejoin="round"/>
  <text x="79.2" y="105" text-anchor="middle" font-size="9" font-family="sans-serif" fill="#8b949e">06</text>
  <text x="162.3" y="105" text-anchor="middle" font-size="9" font-family="sans-serif" fill="#8b949e">12</text>
</svg>