<svg xmlns="http://www.w3.org/2000/svg" width="200" height="108" viewBox="0 0 200 108">
  <rect width="200" height="108" rx="6" fill="#161b22"/>
  <text x="100" y="14" text-anchor="middle" font-size="11" font-weight="500" font-family="sans-serif" fill="#ffffff">Heart rate</text>
  <path d="M 10.0,70.8 L 26.4,52.3 L 42.7,28.3 L 59.1,70.8 L 75.5,55.2 L 91.8,72.2 L 108.2,59.4 L 124.5,65.1 L 140.9,65.1 L 157.3,52.3 L 173.6,49.5 L 190.0,60.8 L 190.0,76.4 L 173.6,77.8 L 157.3,82.1 L 140.9,83.5 L 124.5,82.1 L 108.2,80.7 L 91.8,82.1 L 75.5,84.9 L 59.1,82.1 L 42.7,84.9 L 26.4,84.9 L 10.0,87.8 Z" fill="#f85149" fill-opacity="0.08"/>
  <path d="M 10.0,79.3 L 26.4,76.4 L 42.7,75.0 L 59.1,76.4 L 75.5,75.0 L 91.8,77.8 L 108.2,72.2 L 124.5,75.0 L 140.9,77.8 L 157.3,76.4 L 173.6,63.7 L 190.0,69.3 L 190.0,92.0 L 10,92.0 Z" fill="#f85149" fill-opacity="0.12"/>
  <path d="M 10.0,79.3 L 26.4,76.4 L 42.7,75.0 L 59.1,76.4 L 75.5,75.0 L 91.8,77.8 L 108.2,72.2 L 124.5,75.0 L 140.9,77.8 L 157.3,76.4 L 173.6,63.7 L 190.0,69.3" fill="none" stroke="#f85149" stroke-width="1.5" stroke-linecap="round" stroke-linejoin="round"/>
  <text x="26.4" y="105" text-anchor="middle" font-size="9" font-family="sans-serif" fill="#8b949e">06</text>
  <text x="124.5" y="105" text-anchor="middle" font-size="9" font-family="sans-serif" fill="#8b949e">12</text>
</svg>