<svg xmlns="http://www.w3.org/2000/svg" width="200" height="160" viewBox="0 0 200 160">
  <rect width="200" height="160" rx="6" fill="#161b22"/>
  <polygon points="100.0,20.0 152.0,50.0 152.0,110.0 100.0,140.0 48.0,110.0 48.0,50.0" fill="none" stroke="#30363d" stroke-width="1"/>
  <polygon points="100.0,40.4 134.3,60.2 134.3,99.8 100.0,119.6 65.7,99.8 65.7,60.2" fill="none" stroke="#30363d" stroke-width="1"/>
  <polygon points="100.0,60.2 117.1,70.1 117.1,89.9 100.0,99.8 82.9,89.9 82.9,70.1" fill="none" stroke="#30363d" stroke-width="1"/>
  <line x1="100" y1="80" x2="100.0" y2="20.0" stroke="#30363d" stroke-width="1"/>
  <line x1="100" y1="80" x2="152.0" y2="50.0" stroke="#30363d" stroke-width="1"/>
  <line x1="100" y1="80" x2="152.0" y2="110.0" stroke="#30363d" stroke-width="1"/>
  <line x1="100" y1="80" x2="100.0" y2="140.0" stroke="#30363d" stroke-width="1"/>
  <line x1="100" y1="80" x2="48.0" y2="110.0" stroke="#30363d" stroke-width="1"/>
  <line x1="100" y1="80" x2="48.0" y2="50.0" stroke="#30363d" stroke-width="1"/>
  <polygon points="100.0,26.0 141.6,56.0 144.2,105.5 100.0,119.0 58.4,104.0 53.2,53.0" fill="#ffc400" fill-opacity="0.2" stroke="#ffc400" stroke-width="1.5"/>
  <text x="100.0" y="12.0" text-anchor="middle" dominant-baseline="middle" font-size="11" font-weight="500" font-family="sans-serif" fill="#ffffff">Development</text>
  <text x="158.9" y="46.0" text-anchor="middle" dominant-baseline="middle" font-size="11" font-weight="500" font-family="sans-serif" fill="#ffffff">Cooking</text>
  <text x="158.9" y="114.0" text-anchor="middle" dominant-baseline="middle" font-size="11" font-weight="500" font-family="sans-serif" fill="#ffffff">Athletics</text>
  <text x="100.0" y="148.0" text-anchor="middle" dominant-baseline="middle" font-size="11" font-weight="500" font-family="sans-serif" fill="#ffffff">Social</text>
  <text x="41.1" y="114.0" text-anchor="middle" dominant-baseline="middle" font-size="11" font-weight="500" font-family="sans-serif" fill="#ffffff">Gaming</text>
  <text x="41.1" y="46.0" text-anchor="middle" dominant-baseline="middle" font-size="11" font-weight="500" font-family="sans-serif" fill="#ffffff">Dark Arts</text>
</svg>